solid OpenSCAD_Model
  facet normal -0 0 1
    outer loop
      vertex 0 79.5 4
      vertex 69.5 0 4
      vertex 69.5 79.5 4
    endloop
  endfacet
  facet normal 0 0 1
    outer loop
      vertex 69.5 0 4
      vertex 0 79.5 4
      vertex 0 0 4
    endloop
  endfacet
  facet normal 0 0 -1
    outer loop
      vertex 0 0 0
      vertex 69.5 79.5 0
      vertex 69.5 0 0
    endloop
  endfacet
  facet normal -0 0 -1
    outer loop
      vertex 69.5 79.5 0
      vertex 0 0 0
      vertex 0 79.5 0
    endloop
  endfacet
  facet normal 0 -1 0
    outer loop
      vertex 0 0 0
      vertex 69.5 0 4
      vertex 0 0 4
    endloop
  endfacet
  facet normal 0 -1 -0
    outer loop
      vertex 69.5 0 4
      vertex 0 0 0
      vertex 69.5 0 0
    endloop
  endfacet
  facet normal 1 -0 0
    outer loop
      vertex 69.5 0 4
      vertex 69.5 79.5 0
      vertex 69.5 79.5 4
    endloop
  endfacet
  facet normal 1 0 0
    outer loop
      vertex 69.5 79.5 0
      vertex 69.5 0 4
      vertex 69.5 0 0
    endloop
  endfacet
  facet normal 0 1 -0
    outer loop
      vertex 69.5 79.5 0
      vertex 0 79.5 4
      vertex 69.5 79.5 4
    endloop
  endfacet
  facet normal 0 1 0
    outer loop
      vertex 0 79.5 4
      vertex 69.5 79.5 0
      vertex 0 79.5 0
    endloop
  endfacet
  facet normal -1 0 0
    outer loop
      vertex 0 0 0
      vertex 0 79.5 4
      vertex 0 79.5 0
    endloop
  endfacet
  facet normal -1 -0 0
    outer loop
      vertex 0 79.5 4
      vertex 0 0 0
      vertex 0 0 4
    endloop
  endfacet
endsolid OpenSCAD_Model
