solid OpenSCAD_Model
  facet normal -0.70039 0.71376 0
    outer loop
      vertex 24.81 -3.248 3.45
      vertex 14.88 -12.992 7.45
      vertex 24.81 -3.248 7.45
    endloop
  endfacet
  facet normal -0.70039 0.71376 0
    outer loop
      vertex 14.88 -12.992 7.45
      vertex 24.81 -3.248 3.45
      vertex 14.88 -12.992 3.45
    endloop
  endfacet
  facet normal -0.70039 -0.71376 0
    outer loop
      vertex 14.88 12.992 3.45
      vertex 24.81 3.248 7.45
      vertex 14.88 12.992 7.45
    endloop
  endfacet
  facet normal -0.70039 -0.71376 -0
    outer loop
      vertex 24.81 3.248 7.45
      vertex 14.88 12.992 3.45
      vertex 24.81 3.248 3.45
    endloop
  endfacet
  facet normal -1 0 0
    outer loop
      vertex 14.88 16.24 1.45
      vertex 14.88 12.992 3.45
      vertex 14.88 16.24 9.45
    endloop
  endfacet
  facet normal -1 0 0
    outer loop
      vertex 14.88 16.24 1.45
      vertex 14.88 -12.992 3.45
      vertex 14.88 12.992 3.45
    endloop
  endfacet
  facet normal -1 -0 0
    outer loop
      vertex 14.88 -12.992 3.45
      vertex 14.88 -16.24 1.45
      vertex 14.88 -12.992 7.45
    endloop
  endfacet
  facet normal -1 0 0
    outer loop
      vertex 14.88 -16.24 1.45
      vertex 14.88 -12.992 3.45
      vertex 14.88 16.24 1.45
    endloop
  endfacet
  facet normal -1 0 0
    outer loop
      vertex 14.88 12.992 7.45
      vertex 14.88 16.24 9.45
      vertex 14.88 12.992 3.45
    endloop
  endfacet
  facet normal -1 0 0
    outer loop
      vertex 14.88 -12.992 7.45
      vertex 14.88 16.24 9.45
      vertex 14.88 12.992 7.45
    endloop
  endfacet
  facet normal -1 0 0
    outer loop
      vertex 14.88 -12.992 7.45
      vertex 14.88 -16.24 9.45
      vertex 14.88 16.24 9.45
    endloop
  endfacet
  facet normal -1 0 0
    outer loop
      vertex 14.88 -16.24 9.45
      vertex 14.88 -12.992 7.45
      vertex 14.88 -16.24 1.45
    endloop
  endfacet
  facet normal -1 -0 0
    outer loop
      vertex 24.81 -1.90211 4.83197
      vertex 24.81 -3.248 3.45
      vertex 24.81 -2 5.45
    endloop
  endfacet
  facet normal -1 -0 0
    outer loop
      vertex 24.81 -1.61803 4.27443
      vertex 24.81 -3.248 3.45
      vertex 24.81 -1.90211 4.83197
    endloop
  endfacet
  facet normal -1 -0 0
    outer loop
      vertex 24.81 -1.17557 3.83197
      vertex 24.81 -3.248 3.45
      vertex 24.81 -1.61803 4.27443
    endloop
  endfacet
  facet normal -1 -0 0
    outer loop
      vertex 24.81 -0.618033 3.54789
      vertex 24.81 -3.248 3.45
      vertex 24.81 -1.17557 3.83197
    endloop
  endfacet
  facet normal -1 0 0
    outer loop
      vertex 24.81 -3.248 3.45
      vertex 24.81 -0.618033 3.54789
      vertex 24.81 0 3.45
    endloop
  endfacet
  facet normal -1 0 0
    outer loop
      vertex 24.81 -3.248 7.45
      vertex 24.81 -2 5.45
      vertex 24.81 -3.248 3.45
    endloop
  endfacet
  facet normal -1 0 0
    outer loop
      vertex 24.81 -2 5.45
      vertex 24.81 -3.248 7.45
      vertex 24.81 -1.90211 6.06803
    endloop
  endfacet
  facet normal -1 0 0
    outer loop
      vertex 24.81 -0.618033 7.35211
      vertex 24.81 -3.248 7.45
      vertex 24.81 0 7.45
    endloop
  endfacet
  facet normal -1 0 0
    outer loop
      vertex 24.81 -1.17557 7.06803
      vertex 24.81 -3.248 7.45
      vertex 24.81 -0.618033 7.35211
    endloop
  endfacet
  facet normal -1 0 0
    outer loop
      vertex 24.81 -1.61803 6.62557
      vertex 24.81 -3.248 7.45
      vertex 24.81 -1.17557 7.06803
    endloop
  endfacet
  facet normal -1 0 0
    outer loop
      vertex 24.81 -1.90211 6.06803
      vertex 24.81 -3.248 7.45
      vertex 24.81 -1.61803 6.62557
    endloop
  endfacet
  facet normal -1 0 0
    outer loop
      vertex 24.81 3.248 3.45
      vertex 24.81 2 5.45
      vertex 24.81 3.248 7.45
    endloop
  endfacet
  facet normal -1 0 0
    outer loop
      vertex 24.81 3.248 3.45
      vertex 24.81 1.90211 4.83197
      vertex 24.81 2 5.45
    endloop
  endfacet
  facet normal -1 0 0
    outer loop
      vertex 24.81 3.248 3.45
      vertex 24.81 1.61803 4.27443
      vertex 24.81 1.90211 4.83197
    endloop
  endfacet
  facet normal -1 0 0
    outer loop
      vertex 24.81 3.248 3.45
      vertex 24.81 1.17557 3.83197
      vertex 24.81 1.61803 4.27443
    endloop
  endfacet
  facet normal -1 0 0
    outer loop
      vertex 24.81 3.248 3.45
      vertex 24.81 0.618033 3.54789
      vertex 24.81 1.17557 3.83197
    endloop
  endfacet
  facet normal -1 0 -0
    outer loop
      vertex 24.81 0.618033 3.54789
      vertex 24.81 3.248 3.45
      vertex 24.81 0 3.45
    endloop
  endfacet
  facet normal -1 0 0
    outer loop
      vertex 24.81 1.90211 6.06803
      vertex 24.81 3.248 7.45
      vertex 24.81 2 5.45
    endloop
  endfacet
  facet normal -1 0 0
    outer loop
      vertex 24.81 1.61803 6.62557
      vertex 24.81 3.248 7.45
      vertex 24.81 1.90211 6.06803
    endloop
  endfacet
  facet normal -1 0 0
    outer loop
      vertex 24.81 1.17557 7.06803
      vertex 24.81 3.248 7.45
      vertex 24.81 1.61803 6.62557
    endloop
  endfacet
  facet normal -1 0 0
    outer loop
      vertex 24.81 0.618033 7.35211
      vertex 24.81 3.248 7.45
      vertex 24.81 1.17557 7.06803
    endloop
  endfacet
  facet normal -1 -0 0
    outer loop
      vertex 24.81 3.248 7.45
      vertex 24.81 0.618033 7.35211
      vertex 24.81 0 7.45
    endloop
  endfacet
  facet normal 0 0 -1
    outer loop
      vertex 14.88 -12.992 7.45
      vertex 24.81 0 7.45
      vertex 24.81 -3.248 7.45
    endloop
  endfacet
  facet normal 0 0 -1
    outer loop
      vertex 14.88 12.992 7.45
      vertex 24.81 0 7.45
      vertex 14.88 -12.992 7.45
    endloop
  endfacet
  facet normal 0 0 -1
    outer loop
      vertex 24.81 0 7.45
      vertex 14.88 12.992 7.45
      vertex 24.81 3.248 7.45
    endloop
  endfacet
  facet normal 0 0 1
    outer loop
      vertex 14.88 12.992 3.45
      vertex 24.81 0 3.45
      vertex 24.81 3.248 3.45
    endloop
  endfacet
  facet normal 0 0 1
    outer loop
      vertex 14.88 -12.992 3.45
      vertex 24.81 0 3.45
      vertex 14.88 12.992 3.45
    endloop
  endfacet
  facet normal 0 0 1
    outer loop
      vertex 24.81 0 3.45
      vertex 14.88 -12.992 3.45
      vertex 24.81 -3.248 3.45
    endloop
  endfacet
  facet normal 0 0 1
    outer loop
      vertex -24.81 0 3.45
      vertex -14.88 12.992 3.45
      vertex -24.81 3.248 3.45
    endloop
  endfacet
  facet normal 0 0 1
    outer loop
      vertex -14.88 12.992 3.45
      vertex -24.81 0 3.45
      vertex -14.88 -12.992 3.45
    endloop
  endfacet
  facet normal 0 0 1
    outer loop
      vertex -14.88 -12.992 3.45
      vertex -24.81 0 3.45
      vertex -24.81 -3.248 3.45
    endloop
  endfacet
  facet normal 1 0 0
    outer loop
      vertex -14.88 16.24 9.45
      vertex -14.88 12.992 7.45
      vertex -14.88 16.24 1.45
    endloop
  endfacet
  facet normal 1 0 0
    outer loop
      vertex -14.88 16.24 9.45
      vertex -14.88 -12.992 7.45
      vertex -14.88 12.992 7.45
    endloop
  endfacet
  facet normal 1 0 0
    outer loop
      vertex -14.88 -12.992 7.45
      vertex -14.88 -16.24 9.45
      vertex -14.88 -12.992 3.45
    endloop
  endfacet
  facet normal 1 -0 0
    outer loop
      vertex -14.88 -16.24 9.45
      vertex -14.88 -12.992 7.45
      vertex -14.88 16.24 9.45
    endloop
  endfacet
  facet normal 1 -0 0
    outer loop
      vertex -14.88 12.992 3.45
      vertex -14.88 16.24 1.45
      vertex -14.88 12.992 7.45
    endloop
  endfacet
  facet normal 1 -0 0
    outer loop
      vertex -14.88 -12.992 3.45
      vertex -14.88 16.24 1.45
      vertex -14.88 12.992 3.45
    endloop
  endfacet
  facet normal 1 0 0
    outer loop
      vertex -14.88 -12.992 3.45
      vertex -14.88 -16.24 1.45
      vertex -14.88 16.24 1.45
    endloop
  endfacet
  facet normal 1 0 0
    outer loop
      vertex -14.88 -16.24 1.45
      vertex -14.88 -12.992 3.45
      vertex -14.88 -16.24 9.45
    endloop
  endfacet
  facet normal 0.70039 0.71376 -0
    outer loop
      vertex -14.88 -12.992 3.45
      vertex -24.81 -3.248 7.45
      vertex -14.88 -12.992 7.45
    endloop
  endfacet
  facet normal 0.70039 0.71376 0
    outer loop
      vertex -24.81 -3.248 7.45
      vertex -14.88 -12.992 3.45
      vertex -24.81 -3.248 3.45
    endloop
  endfacet
  facet normal 0.70039 -0.71376 0
    outer loop
      vertex -24.81 3.248 3.45
      vertex -14.88 12.992 7.45
      vertex -24.81 3.248 7.45
    endloop
  endfacet
  facet normal 0.70039 -0.71376 0
    outer loop
      vertex -14.88 12.992 7.45
      vertex -24.81 3.248 3.45
      vertex -14.88 12.992 3.45
    endloop
  endfacet
  facet normal 0 0 -1
    outer loop
      vertex -24.81 0 7.45
      vertex -14.88 -12.992 7.45
      vertex -24.81 -3.248 7.45
    endloop
  endfacet
  facet normal 0 0 -1
    outer loop
      vertex -14.88 -12.992 7.45
      vertex -24.81 0 7.45
      vertex -14.88 12.992 7.45
    endloop
  endfacet
  facet normal 0 0 -1
    outer loop
      vertex -14.88 12.992 7.45
      vertex -24.81 0 7.45
      vertex -24.81 3.248 7.45
    endloop
  endfacet
  facet normal 1 0 0
    outer loop
      vertex -24.81 -1.90211 6.06803
      vertex -24.81 -3.248 7.45
      vertex -24.81 -2 5.45
    endloop
  endfacet
  facet normal 1 0 0
    outer loop
      vertex -24.81 -1.61803 6.62557
      vertex -24.81 -3.248 7.45
      vertex -24.81 -1.90211 6.06803
    endloop
  endfacet
  facet normal 1 0 0
    outer loop
      vertex -24.81 -1.17557 7.06803
      vertex -24.81 -3.248 7.45
      vertex -24.81 -1.61803 6.62557
    endloop
  endfacet
  facet normal 1 0 0
    outer loop
      vertex -24.81 -0.618033 7.35211
      vertex -24.81 -3.248 7.45
      vertex -24.81 -1.17557 7.06803
    endloop
  endfacet
  facet normal 1 -0 0
    outer loop
      vertex -24.81 -3.248 7.45
      vertex -24.81 -0.618033 7.35211
      vertex -24.81 0 7.45
    endloop
  endfacet
  facet normal 1 0 0
    outer loop
      vertex -24.81 -3.248 3.45
      vertex -24.81 -2 5.45
      vertex -24.81 -3.248 7.45
    endloop
  endfacet
  facet normal 1 0 0
    outer loop
      vertex -24.81 -2 5.45
      vertex -24.81 -3.248 3.45
      vertex -24.81 -1.90211 4.83197
    endloop
  endfacet
  facet normal 1 0 0
    outer loop
      vertex -24.81 -0.618033 3.54789
      vertex -24.81 -3.248 3.45
      vertex -24.81 0 3.45
    endloop
  endfacet
  facet normal 1 0 0
    outer loop
      vertex -24.81 -1.17557 3.83197
      vertex -24.81 -3.248 3.45
      vertex -24.81 -0.618033 3.54789
    endloop
  endfacet
  facet normal 1 0 0
    outer loop
      vertex -24.81 -1.61803 4.27443
      vertex -24.81 -3.248 3.45
      vertex -24.81 -1.17557 3.83197
    endloop
  endfacet
  facet normal 1 0 0
    outer loop
      vertex -24.81 -1.90211 4.83197
      vertex -24.81 -3.248 3.45
      vertex -24.81 -1.61803 4.27443
    endloop
  endfacet
  facet normal 1 0 0
    outer loop
      vertex -24.81 3.248 7.45
      vertex -24.81 2 5.45
      vertex -24.81 3.248 3.45
    endloop
  endfacet
  facet normal 1 0 0
    outer loop
      vertex -24.81 3.248 7.45
      vertex -24.81 1.90211 6.06803
      vertex -24.81 2 5.45
    endloop
  endfacet
  facet normal 1 0 0
    outer loop
      vertex -24.81 3.248 7.45
      vertex -24.81 1.61803 6.62557
      vertex -24.81 1.90211 6.06803
    endloop
  endfacet
  facet normal 1 0 0
    outer loop
      vertex -24.81 3.248 7.45
      vertex -24.81 1.17557 7.06803
      vertex -24.81 1.61803 6.62557
    endloop
  endfacet
  facet normal 1 0 0
    outer loop
      vertex -24.81 3.248 7.45
      vertex -24.81 0.618033 7.35211
      vertex -24.81 1.17557 7.06803
    endloop
  endfacet
  facet normal 1 0 -0
    outer loop
      vertex -24.81 0.618033 7.35211
      vertex -24.81 3.248 7.45
      vertex -24.81 0 7.45
    endloop
  endfacet
  facet normal 1 -0 0
    outer loop
      vertex -24.81 1.90211 4.83197
      vertex -24.81 3.248 3.45
      vertex -24.81 2 5.45
    endloop
  endfacet
  facet normal 1 -0 0
    outer loop
      vertex -24.81 1.61803 4.27443
      vertex -24.81 3.248 3.45
      vertex -24.81 1.90211 4.83197
    endloop
  endfacet
  facet normal 1 -0 0
    outer loop
      vertex -24.81 1.17557 3.83197
      vertex -24.81 3.248 3.45
      vertex -24.81 1.61803 4.27443
    endloop
  endfacet
  facet normal 1 -0 0
    outer loop
      vertex -24.81 0.618033 3.54789
      vertex -24.81 3.248 3.45
      vertex -24.81 1.17557 3.83197
    endloop
  endfacet
  facet normal 1 0 0
    outer loop
      vertex -24.81 3.248 3.45
      vertex -24.81 0.618033 3.54789
      vertex -24.81 0 3.45
    endloop
  endfacet
  facet normal 0 -0.156435 0.987688
    outer loop
      vertex -36.1 0.618033 3.54789
      vertex -24.81 0 3.45
      vertex -24.81 0.618033 3.54789
    endloop
  endfacet
  facet normal 0 -0.156435 0.987688
    outer loop
      vertex -24.81 0 3.45
      vertex -36.1 0.618033 3.54789
      vertex -36.1 0 3.45
    endloop
  endfacet
  facet normal 0 -0.156435 0.987688
    outer loop
      vertex 24.81 0.618033 3.54789
      vertex 36.1 0 3.45
      vertex 36.1 0.618033 3.54789
    endloop
  endfacet
  facet normal 0 -0.156435 0.987688
    outer loop
      vertex 36.1 0 3.45
      vertex 24.81 0.618033 3.54789
      vertex 24.81 0 3.45
    endloop
  endfacet
  facet normal 0 -0.156435 -0.987688
    outer loop
      vertex -36.1 0 7.45
      vertex -24.81 0.618033 7.35211
      vertex -24.81 0 7.45
    endloop
  endfacet
  facet normal -0 -0.156435 -0.987688
    outer loop
      vertex -24.81 0.618033 7.35211
      vertex -36.1 0 7.45
      vertex -36.1 0.618033 7.35211
    endloop
  endfacet
  facet normal 0 -0.156435 -0.987688
    outer loop
      vertex 24.81 0 7.45
      vertex 36.1 0.618033 7.35211
      vertex 36.1 0 7.45
    endloop
  endfacet
  facet normal -0 -0.156435 -0.987688
    outer loop
      vertex 36.1 0.618033 7.35211
      vertex 24.81 0 7.45
      vertex 24.81 0.618033 7.35211
    endloop
  endfacet
  facet normal 0 0.987688 -0.156435
    outer loop
      vertex 36.1 -2 5.45
      vertex 24.81 -1.90211 6.06803
      vertex 36.1 -1.90211 6.06803
    endloop
  endfacet
  facet normal 0 0.987688 -0.156435
    outer loop
      vertex 24.81 -1.90211 6.06803
      vertex 36.1 -2 5.45
      vertex 24.81 -2 5.45
    endloop
  endfacet
  facet normal 0 0.987688 -0.156435
    outer loop
      vertex -24.81 -2 5.45
      vertex -36.1 -1.90211 6.06803
      vertex -24.81 -1.90211 6.06803
    endloop
  endfacet
  facet normal 0 0.987688 -0.156435
    outer loop
      vertex -36.1 -1.90211 6.06803
      vertex -24.81 -2 5.45
      vertex -36.1 -2 5.45
    endloop
  endfacet
  facet normal -1 0 0
    outer loop
      vertex -36.1 35.8 -6.75
      vertex -36.1 2 5.45
      vertex -36.1 35.8 11.45
    endloop
  endfacet
  facet normal -1 0 0
    outer loop
      vertex -36.1 35.8 -6.75
      vertex -36.1 1.90211 4.83197
      vertex -36.1 2 5.45
    endloop
  endfacet
  facet normal -1 0 0
    outer loop
      vertex -36.1 35.8 -6.75
      vertex -36.1 1.61803 4.27443
      vertex -36.1 1.90211 4.83197
    endloop
  endfacet
  facet normal -1 0 0
    outer loop
      vertex -36.1 35.8 -6.75
      vertex -36.1 1.17557 3.83197
      vertex -36.1 1.61803 4.27443
    endloop
  endfacet
  facet normal -1 0 0
    outer loop
      vertex -36.1 35.8 -6.75
      vertex -36.1 0.618033 3.54789
      vertex -36.1 1.17557 3.83197
    endloop
  endfacet
  facet normal -1 0 0
    outer loop
      vertex -36.1 35.8 -6.75
      vertex -36.1 0 3.45
      vertex -36.1 0.618033 3.54789
    endloop
  endfacet
  facet normal -1 0 0
    outer loop
      vertex -36.1 -25.8 -6.75
      vertex -36.1 0 3.45
      vertex -36.1 35.8 -6.75
    endloop
  endfacet
  facet normal -1 0 0
    outer loop
      vertex -36.1 -25.8 11.45
      vertex -36.1 -1.90211 4.83197
      vertex -36.1 -25.8 -6.75
    endloop
  endfacet
  facet normal -1 -0 0
    outer loop
      vertex -36.1 -1.61803 4.27443
      vertex -36.1 -25.8 -6.75
      vertex -36.1 -1.90211 4.83197
    endloop
  endfacet
  facet normal -1 -0 0
    outer loop
      vertex -36.1 -1.17557 3.83197
      vertex -36.1 -25.8 -6.75
      vertex -36.1 -1.61803 4.27443
    endloop
  endfacet
  facet normal -1 -0 0
    outer loop
      vertex -36.1 -0.618033 3.54789
      vertex -36.1 -25.8 -6.75
      vertex -36.1 -1.17557 3.83197
    endloop
  endfacet
  facet normal -1 -0 0
    outer loop
      vertex -36.1 0 3.45
      vertex -36.1 -25.8 -6.75
      vertex -36.1 -0.618033 3.54789
    endloop
  endfacet
  facet normal -1 0 0
    outer loop
      vertex -36.1 1.90211 6.06803
      vertex -36.1 35.8 11.45
      vertex -36.1 2 5.45
    endloop
  endfacet
  facet normal -1 0 0
    outer loop
      vertex -36.1 1.61803 6.62557
      vertex -36.1 35.8 11.45
      vertex -36.1 1.90211 6.06803
    endloop
  endfacet
  facet normal -1 0 0
    outer loop
      vertex -36.1 1.17557 7.06803
      vertex -36.1 35.8 11.45
      vertex -36.1 1.61803 6.62557
    endloop
  endfacet
  facet normal -1 0 0
    outer loop
      vertex -36.1 0.618033 7.35211
      vertex -36.1 35.8 11.45
      vertex -36.1 1.17557 7.06803
    endloop
  endfacet
  facet normal -1 0 0
    outer loop
      vertex -36.1 0 7.45
      vertex -36.1 35.8 11.45
      vertex -36.1 0.618033 7.35211
    endloop
  endfacet
  facet normal -1 0 0
    outer loop
      vertex -36.1 -1.90211 4.83197
      vertex -36.1 -25.8 11.45
      vertex -36.1 -2 5.45
    endloop
  endfacet
  facet normal -1 0 0
    outer loop
      vertex -36.1 -2 5.45
      vertex -36.1 -25.8 11.45
      vertex -36.1 -1.90211 6.06803
    endloop
  endfacet
  facet normal -1 0 0
    outer loop
      vertex -36.1 -1.90211 6.06803
      vertex -36.1 -25.8 11.45
      vertex -36.1 -1.61803 6.62557
    endloop
  endfacet
  facet normal -1 0 0
    outer loop
      vertex -36.1 0 7.45
      vertex -36.1 -25.8 11.45
      vertex -36.1 35.8 11.45
    endloop
  endfacet
  facet normal -1 0 0
    outer loop
      vertex -36.1 -0.618033 7.35211
      vertex -36.1 -25.8 11.45
      vertex -36.1 0 7.45
    endloop
  endfacet
  facet normal -1 0 0
    outer loop
      vertex -36.1 -1.17557 7.06803
      vertex -36.1 -25.8 11.45
      vertex -36.1 -0.618033 7.35211
    endloop
  endfacet
  facet normal -1 0 0
    outer loop
      vertex -36.1 -1.61803 6.62557
      vertex -36.1 -25.8 11.45
      vertex -36.1 -1.17557 7.06803
    endloop
  endfacet
  facet normal 0 0.453991 -0.891006
    outer loop
      vertex -36.1 -1.17557 7.06803
      vertex -24.81 -0.618033 7.35211
      vertex -24.81 -1.17557 7.06803
    endloop
  endfacet
  facet normal 0 0.453991 -0.891006
    outer loop
      vertex -24.81 -0.618033 7.35211
      vertex -36.1 -1.17557 7.06803
      vertex -36.1 -0.618033 7.35211
    endloop
  endfacet
  facet normal 0 0.453991 -0.891006
    outer loop
      vertex 24.81 -1.17557 7.06803
      vertex 36.1 -0.618033 7.35211
      vertex 36.1 -1.17557 7.06803
    endloop
  endfacet
  facet normal 0 0.453991 -0.891006
    outer loop
      vertex 36.1 -0.618033 7.35211
      vertex 24.81 -1.17557 7.06803
      vertex 24.81 -0.618033 7.35211
    endloop
  endfacet
  facet normal 0 -0.45399 0.891007
    outer loop
      vertex -36.1 1.17557 3.83197
      vertex -24.81 0.618033 3.54789
      vertex -24.81 1.17557 3.83197
    endloop
  endfacet
  facet normal 0 -0.45399 0.891007
    outer loop
      vertex -24.81 0.618033 3.54789
      vertex -36.1 1.17557 3.83197
      vertex -36.1 0.618033 3.54789
    endloop
  endfacet
  facet normal 0 -0.45399 0.891007
    outer loop
      vertex 24.81 1.17557 3.83197
      vertex 36.1 0.618033 3.54789
      vertex 36.1 1.17557 3.83197
    endloop
  endfacet
  facet normal 0 -0.45399 0.891007
    outer loop
      vertex 36.1 0.618033 3.54789
      vertex 24.81 1.17557 3.83197
      vertex 24.81 0.618033 3.54789
    endloop
  endfacet
  facet normal 0 -0.891006 0.453991
    outer loop
      vertex -36.1 1.61803 4.27443
      vertex -24.81 1.90211 4.83197
      vertex -36.1 1.90211 4.83197
    endloop
  endfacet
  facet normal 0 -0.891006 0.453991
    outer loop
      vertex -24.81 1.90211 4.83197
      vertex -36.1 1.61803 4.27443
      vertex -24.81 1.61803 4.27443
    endloop
  endfacet
  facet normal 0 -0.891006 0.453991
    outer loop
      vertex 24.81 1.61803 4.27443
      vertex 36.1 1.90211 4.83197
      vertex 24.81 1.90211 4.83197
    endloop
  endfacet
  facet normal 0 -0.891006 0.453991
    outer loop
      vertex 36.1 1.90211 4.83197
      vertex 24.81 1.61803 4.27443
      vertex 36.1 1.61803 4.27443
    endloop
  endfacet
  facet normal 0 -0.891006 -0.453991
    outer loop
      vertex 24.81 1.90211 6.06803
      vertex 36.1 1.61803 6.62557
      vertex 24.81 1.61803 6.62557
    endloop
  endfacet
  facet normal 0 -0.891006 -0.453991
    outer loop
      vertex 36.1 1.61803 6.62557
      vertex 24.81 1.90211 6.06803
      vertex 36.1 1.90211 6.06803
    endloop
  endfacet
  facet normal 0 -0.891006 -0.453991
    outer loop
      vertex -36.1 1.90211 6.06803
      vertex -24.81 1.61803 6.62557
      vertex -36.1 1.61803 6.62557
    endloop
  endfacet
  facet normal 0 -0.891006 -0.453991
    outer loop
      vertex -24.81 1.61803 6.62557
      vertex -36.1 1.90211 6.06803
      vertex -24.81 1.90211 6.06803
    endloop
  endfacet
  facet normal 0 -0.987688 -0.156435
    outer loop
      vertex -36.1 2 5.45
      vertex -24.81 1.90211 6.06803
      vertex -36.1 1.90211 6.06803
    endloop
  endfacet
  facet normal 0 -0.987688 -0.156435
    outer loop
      vertex -24.81 1.90211 6.06803
      vertex -36.1 2 5.45
      vertex -24.81 2 5.45
    endloop
  endfacet
  facet normal 0 -0.987688 -0.156435
    outer loop
      vertex 24.81 2 5.45
      vertex 36.1 1.90211 6.06803
      vertex 24.81 1.90211 6.06803
    endloop
  endfacet
  facet normal 0 -0.987688 -0.156435
    outer loop
      vertex 36.1 1.90211 6.06803
      vertex 24.81 2 5.45
      vertex 36.1 2 5.45
    endloop
  endfacet
  facet normal 0 0.987688 0.156434
    outer loop
      vertex 36.1 -1.90211 4.83197
      vertex 24.81 -2 5.45
      vertex 36.1 -2 5.45
    endloop
  endfacet
  facet normal 0 0.987688 0.156434
    outer loop
      vertex 24.81 -2 5.45
      vertex 36.1 -1.90211 4.83197
      vertex 24.81 -1.90211 4.83197
    endloop
  endfacet
  facet normal 0 0.987688 0.156434
    outer loop
      vertex -24.81 -1.90211 4.83197
      vertex -36.1 -2 5.45
      vertex -24.81 -2 5.45
    endloop
  endfacet
  facet normal 0 0.987688 0.156434
    outer loop
      vertex -36.1 -2 5.45
      vertex -24.81 -1.90211 4.83197
      vertex -36.1 -1.90211 4.83197
    endloop
  endfacet
  facet normal 0 0.707108 0.707106
    outer loop
      vertex -24.81 -1.17557 3.83197
      vertex -36.1 -1.61803 4.27443
      vertex -24.81 -1.61803 4.27443
    endloop
  endfacet
  facet normal 0 0.707108 0.707106
    outer loop
      vertex -36.1 -1.61803 4.27443
      vertex -24.81 -1.17557 3.83197
      vertex -36.1 -1.17557 3.83197
    endloop
  endfacet
  facet normal 0 0.707108 0.707106
    outer loop
      vertex 36.1 -1.17557 3.83197
      vertex 24.81 -1.61803 4.27443
      vertex 36.1 -1.61803 4.27443
    endloop
  endfacet
  facet normal 0 0.707108 0.707106
    outer loop
      vertex 24.81 -1.61803 4.27443
      vertex 36.1 -1.17557 3.83197
      vertex 24.81 -1.17557 3.83197
    endloop
  endfacet
  facet normal -0 0.45399 0.891007
    outer loop
      vertex -36.1 -0.618033 3.54789
      vertex -24.81 -1.17557 3.83197
      vertex -24.81 -0.618033 3.54789
    endloop
  endfacet
  facet normal 0 0.45399 0.891007
    outer loop
      vertex -24.81 -1.17557 3.83197
      vertex -36.1 -0.618033 3.54789
      vertex -36.1 -1.17557 3.83197
    endloop
  endfacet
  facet normal -0 0.45399 0.891007
    outer loop
      vertex 24.81 -0.618033 3.54789
      vertex 36.1 -1.17557 3.83197
      vertex 36.1 -0.618033 3.54789
    endloop
  endfacet
  facet normal 0 0.45399 0.891007
    outer loop
      vertex 36.1 -1.17557 3.83197
      vertex 24.81 -0.618033 3.54789
      vertex 24.81 -1.17557 3.83197
    endloop
  endfacet
  facet normal 1 0 0
    outer loop
      vertex 36.1 35.8 11.45
      vertex 36.1 2 5.45
      vertex 36.1 35.8 -6.75
    endloop
  endfacet
  facet normal 1 0 0
    outer loop
      vertex 36.1 35.8 11.45
      vertex 36.1 1.90211 6.06803
      vertex 36.1 2 5.45
    endloop
  endfacet
  facet normal 1 0 0
    outer loop
      vertex 36.1 35.8 11.45
      vertex 36.1 1.61803 6.62557
      vertex 36.1 1.90211 6.06803
    endloop
  endfacet
  facet normal 1 0 0
    outer loop
      vertex 36.1 35.8 11.45
      vertex 36.1 1.17557 7.06803
      vertex 36.1 1.61803 6.62557
    endloop
  endfacet
  facet normal 1 0 0
    outer loop
      vertex 36.1 35.8 11.45
      vertex 36.1 0.618033 7.35211
      vertex 36.1 1.17557 7.06803
    endloop
  endfacet
  facet normal 1 0 0
    outer loop
      vertex 36.1 35.8 11.45
      vertex 36.1 0 7.45
      vertex 36.1 0.618033 7.35211
    endloop
  endfacet
  facet normal 1 0 0
    outer loop
      vertex 36.1 -1.90211 6.06803
      vertex 36.1 -25.8 11.45
      vertex 36.1 -2 5.45
    endloop
  endfacet
  facet normal 1 0 0
    outer loop
      vertex 36.1 -1.61803 6.62557
      vertex 36.1 -25.8 11.45
      vertex 36.1 -1.90211 6.06803
    endloop
  endfacet
  facet normal 1 0 0
    outer loop
      vertex 36.1 -1.17557 7.06803
      vertex 36.1 -25.8 11.45
      vertex 36.1 -1.61803 6.62557
    endloop
  endfacet
  facet normal 1 0 0
    outer loop
      vertex 36.1 -0.618033 7.35211
      vertex 36.1 -25.8 11.45
      vertex 36.1 -1.17557 7.06803
    endloop
  endfacet
  facet normal 1 0 0
    outer loop
      vertex 36.1 0 7.45
      vertex 36.1 -25.8 11.45
      vertex 36.1 -0.618033 7.35211
    endloop
  endfacet
  facet normal 1 -0 0
    outer loop
      vertex 36.1 -25.8 11.45
      vertex 36.1 0 7.45
      vertex 36.1 35.8 11.45
    endloop
  endfacet
  facet normal 1 -0 0
    outer loop
      vertex 36.1 1.90211 4.83197
      vertex 36.1 35.8 -6.75
      vertex 36.1 2 5.45
    endloop
  endfacet
  facet normal 1 -0 0
    outer loop
      vertex 36.1 1.61803 4.27443
      vertex 36.1 35.8 -6.75
      vertex 36.1 1.90211 4.83197
    endloop
  endfacet
  facet normal 1 -0 0
    outer loop
      vertex 36.1 1.17557 3.83197
      vertex 36.1 35.8 -6.75
      vertex 36.1 1.61803 4.27443
    endloop
  endfacet
  facet normal 1 -0 0
    outer loop
      vertex 36.1 0.618033 3.54789
      vertex 36.1 35.8 -6.75
      vertex 36.1 1.17557 3.83197
    endloop
  endfacet
  facet normal 1 -0 0
    outer loop
      vertex 36.1 0 3.45
      vertex 36.1 35.8 -6.75
      vertex 36.1 0.618033 3.54789
    endloop
  endfacet
  facet normal 1 0 0
    outer loop
      vertex 36.1 -25.8 -6.75
      vertex 36.1 0 3.45
      vertex 36.1 -0.618033 3.54789
    endloop
  endfacet
  facet normal 1 0 0
    outer loop
      vertex 36.1 -25.8 11.45
      vertex 36.1 -1.90211 4.83197
      vertex 36.1 -2 5.45
    endloop
  endfacet
  facet normal 1 0 0
    outer loop
      vertex 36.1 -25.8 -6.75
      vertex 36.1 -1.90211 4.83197
      vertex 36.1 -25.8 11.45
    endloop
  endfacet
  facet normal 1 0 0
    outer loop
      vertex 36.1 -1.90211 4.83197
      vertex 36.1 -25.8 -6.75
      vertex 36.1 -1.61803 4.27443
    endloop
  endfacet
  facet normal 1 0 0
    outer loop
      vertex 36.1 -1.61803 4.27443
      vertex 36.1 -25.8 -6.75
      vertex 36.1 -1.17557 3.83197
    endloop
  endfacet
  facet normal 1 0 0
    outer loop
      vertex 36.1 0 3.45
      vertex 36.1 -25.8 -6.75
      vertex 36.1 35.8 -6.75
    endloop
  endfacet
  facet normal 1 0 0
    outer loop
      vertex 36.1 -1.17557 3.83197
      vertex 36.1 -25.8 -6.75
      vertex 36.1 -0.618033 3.54789
    endloop
  endfacet
  facet normal 0 0.156435 -0.987688
    outer loop
      vertex -36.1 -0.618033 7.35211
      vertex -24.81 0 7.45
      vertex -24.81 -0.618033 7.35211
    endloop
  endfacet
  facet normal 0 0.156435 -0.987688
    outer loop
      vertex -24.81 0 7.45
      vertex -36.1 -0.618033 7.35211
      vertex -36.1 0 7.45
    endloop
  endfacet
  facet normal 0 0.156435 -0.987688
    outer loop
      vertex 24.81 -0.618033 7.35211
      vertex 36.1 0 7.45
      vertex 36.1 -0.618033 7.35211
    endloop
  endfacet
  facet normal 0 0.156435 -0.987688
    outer loop
      vertex 36.1 0 7.45
      vertex 24.81 -0.618033 7.35211
      vertex 24.81 0 7.45
    endloop
  endfacet
  facet normal 0 -0.707108 0.707106
    outer loop
      vertex -36.1 1.17557 3.83197
      vertex -24.81 1.61803 4.27443
      vertex -36.1 1.61803 4.27443
    endloop
  endfacet
  facet normal 0 -0.707108 0.707106
    outer loop
      vertex -24.81 1.61803 4.27443
      vertex -36.1 1.17557 3.83197
      vertex -24.81 1.17557 3.83197
    endloop
  endfacet
  facet normal 0 -0.707108 0.707106
    outer loop
      vertex 24.81 1.17557 3.83197
      vertex 36.1 1.61803 4.27443
      vertex 24.81 1.61803 4.27443
    endloop
  endfacet
  facet normal 0 -0.707108 0.707106
    outer loop
      vertex 36.1 1.61803 4.27443
      vertex 24.81 1.17557 3.83197
      vertex 36.1 1.17557 3.83197
    endloop
  endfacet
  facet normal 0 -0.987688 0.156434
    outer loop
      vertex -36.1 1.90211 4.83197
      vertex -24.81 2 5.45
      vertex -36.1 2 5.45
    endloop
  endfacet
  facet normal 0 -0.987688 0.156434
    outer loop
      vertex -24.81 2 5.45
      vertex -36.1 1.90211 4.83197
      vertex -24.81 1.90211 4.83197
    endloop
  endfacet
  facet normal 0 -0.987688 0.156434
    outer loop
      vertex 24.81 1.90211 4.83197
      vertex 36.1 2 5.45
      vertex 24.81 2 5.45
    endloop
  endfacet
  facet normal 0 -0.987688 0.156434
    outer loop
      vertex 36.1 2 5.45
      vertex 24.81 1.90211 4.83197
      vertex 36.1 1.90211 4.83197
    endloop
  endfacet
  facet normal 0 -0.707107 -0.707107
    outer loop
      vertex 24.81 1.61803 6.62557
      vertex 36.1 1.17557 7.06803
      vertex 24.81 1.17557 7.06803
    endloop
  endfacet
  facet normal 0 -0.707107 -0.707107
    outer loop
      vertex 36.1 1.17557 7.06803
      vertex 24.81 1.61803 6.62557
      vertex 36.1 1.61803 6.62557
    endloop
  endfacet
  facet normal 0 -0.707107 -0.707107
    outer loop
      vertex -36.1 1.61803 6.62557
      vertex -24.81 1.17557 7.06803
      vertex -36.1 1.17557 7.06803
    endloop
  endfacet
  facet normal 0 -0.707107 -0.707107
    outer loop
      vertex -24.81 1.17557 7.06803
      vertex -36.1 1.61803 6.62557
      vertex -24.81 1.61803 6.62557
    endloop
  endfacet
  facet normal 0 -0.453991 -0.891006
    outer loop
      vertex -36.1 0.618033 7.35211
      vertex -24.81 1.17557 7.06803
      vertex -24.81 0.618033 7.35211
    endloop
  endfacet
  facet normal -0 -0.453991 -0.891006
    outer loop
      vertex -24.81 1.17557 7.06803
      vertex -36.1 0.618033 7.35211
      vertex -36.1 1.17557 7.06803
    endloop
  endfacet
  facet normal 0 -0.453991 -0.891006
    outer loop
      vertex 24.81 0.618033 7.35211
      vertex 36.1 1.17557 7.06803
      vertex 36.1 0.618033 7.35211
    endloop
  endfacet
  facet normal -0 -0.453991 -0.891006
    outer loop
      vertex 36.1 1.17557 7.06803
      vertex 24.81 0.618033 7.35211
      vertex 24.81 1.17557 7.06803
    endloop
  endfacet
  facet normal 0 0.891006 0.453991
    outer loop
      vertex -24.81 -1.61803 4.27443
      vertex -36.1 -1.90211 4.83197
      vertex -24.81 -1.90211 4.83197
    endloop
  endfacet
  facet normal 0 0.891006 0.453991
    outer loop
      vertex -36.1 -1.90211 4.83197
      vertex -24.81 -1.61803 4.27443
      vertex -36.1 -1.61803 4.27443
    endloop
  endfacet
  facet normal 0 0.891006 0.453991
    outer loop
      vertex 36.1 -1.61803 4.27443
      vertex 24.81 -1.90211 4.83197
      vertex 36.1 -1.90211 4.83197
    endloop
  endfacet
  facet normal 0 0.891006 0.453991
    outer loop
      vertex 24.81 -1.90211 4.83197
      vertex 36.1 -1.61803 4.27443
      vertex 24.81 -1.61803 4.27443
    endloop
  endfacet
  facet normal 0 0.707107 -0.707107
    outer loop
      vertex -24.81 -1.61803 6.62557
      vertex -36.1 -1.17557 7.06803
      vertex -24.81 -1.17557 7.06803
    endloop
  endfacet
  facet normal 0 0.707107 -0.707107
    outer loop
      vertex -36.1 -1.17557 7.06803
      vertex -24.81 -1.61803 6.62557
      vertex -36.1 -1.61803 6.62557
    endloop
  endfacet
  facet normal 0 0.707107 -0.707107
    outer loop
      vertex 36.1 -1.61803 6.62557
      vertex 24.81 -1.17557 7.06803
      vertex 36.1 -1.17557 7.06803
    endloop
  endfacet
  facet normal 0 0.707107 -0.707107
    outer loop
      vertex 24.81 -1.17557 7.06803
      vertex 36.1 -1.61803 6.62557
      vertex 24.81 -1.61803 6.62557
    endloop
  endfacet
  facet normal 0 0.891006 -0.453991
    outer loop
      vertex -24.81 -1.90211 6.06803
      vertex -36.1 -1.61803 6.62557
      vertex -24.81 -1.61803 6.62557
    endloop
  endfacet
  facet normal 0 0.891006 -0.453991
    outer loop
      vertex -36.1 -1.61803 6.62557
      vertex -24.81 -1.90211 6.06803
      vertex -36.1 -1.90211 6.06803
    endloop
  endfacet
  facet normal 0 0.891006 -0.453991
    outer loop
      vertex 36.1 -1.90211 6.06803
      vertex 24.81 -1.61803 6.62557
      vertex 36.1 -1.61803 6.62557
    endloop
  endfacet
  facet normal 0 0.891006 -0.453991
    outer loop
      vertex 24.81 -1.61803 6.62557
      vertex 36.1 -1.90211 6.06803
      vertex 24.81 -1.90211 6.06803
    endloop
  endfacet
  facet normal -0 0.156435 0.987688
    outer loop
      vertex 24.81 0 3.45
      vertex 36.1 -0.618033 3.54789
      vertex 36.1 0 3.45
    endloop
  endfacet
  facet normal 0 0.156435 0.987688
    outer loop
      vertex 36.1 -0.618033 3.54789
      vertex 24.81 0 3.45
      vertex 24.81 -0.618033 3.54789
    endloop
  endfacet
  facet normal -0 0.156435 0.987688
    outer loop
      vertex -36.1 0 3.45
      vertex -24.81 -0.618033 3.54789
      vertex -24.81 0 3.45
    endloop
  endfacet
  facet normal 0 0.156435 0.987688
    outer loop
      vertex -24.81 -0.618033 3.54789
      vertex -36.1 0 3.45
      vertex -36.1 -0.618033 3.54789
    endloop
  endfacet
  facet normal 0 0 1
    outer loop
      vertex 36.1 35.8 11.45
      vertex 18.6 20.3 11.45
      vertex 36.1 -25.8 11.45
    endloop
  endfacet
  facet normal 0 0 1
    outer loop
      vertex 36.1 35.8 11.45
      vertex -18.6 20.3 11.45
      vertex 18.6 20.3 11.45
    endloop
  endfacet
  facet normal 0 0 1
    outer loop
      vertex -36.1 -25.8 11.45
      vertex -18.6 20.3 11.45
      vertex -36.1 35.8 11.45
    endloop
  endfacet
  facet normal -0 0 1
    outer loop
      vertex -36.1 35.8 11.45
      vertex -18.6 20.3 11.45
      vertex 36.1 35.8 11.45
    endloop
  endfacet
  facet normal -0 0 1
    outer loop
      vertex 18.6 -20.3 11.45
      vertex 36.1 -25.8 11.45
      vertex 18.6 20.3 11.45
    endloop
  endfacet
  facet normal -0 0 1
    outer loop
      vertex -18.6 -20.3 11.45
      vertex 36.1 -25.8 11.45
      vertex 18.6 -20.3 11.45
    endloop
  endfacet
  facet normal 0 0 1
    outer loop
      vertex -18.6 -20.3 11.45
      vertex -36.1 -25.8 11.45
      vertex 36.1 -25.8 11.45
    endloop
  endfacet
  facet normal 0 0 1
    outer loop
      vertex -18.6 20.3 11.45
      vertex -36.1 -25.8 11.45
      vertex -18.6 -20.3 11.45
    endloop
  endfacet
  facet normal 0 1 -0
    outer loop
      vertex 36.1 35.8 -6.75
      vertex -36.1 35.8 11.45
      vertex 36.1 35.8 11.45
    endloop
  endfacet
  facet normal 0 1 0
    outer loop
      vertex -36.1 35.8 11.45
      vertex 36.1 35.8 -6.75
      vertex -36.1 35.8 -6.75
    endloop
  endfacet
  facet normal 0 0 -1
    outer loop
      vertex 22.35 23.05 -6.75
      vertex 36.1 -25.8 -6.75
      vertex 22.35 -23.05 -6.75
    endloop
  endfacet
  facet normal 0 0 -1
    outer loop
      vertex 36.1 -25.8 -6.75
      vertex -22.35 -23.05 -6.75
      vertex 22.35 -23.05 -6.75
    endloop
  endfacet
  facet normal -0 0 -1
    outer loop
      vertex -22.35 -23.05 -6.75
      vertex -36.1 -25.8 -6.75
      vertex -22.35 23.05 -6.75
    endloop
  endfacet
  facet normal 0 0 -1
    outer loop
      vertex -36.1 -25.8 -6.75
      vertex -22.35 -23.05 -6.75
      vertex 36.1 -25.8 -6.75
    endloop
  endfacet
  facet normal 0 0 -1
    outer loop
      vertex 36.1 -25.8 -6.75
      vertex 22.35 23.05 -6.75
      vertex 36.1 35.8 -6.75
    endloop
  endfacet
  facet normal 0 0 -1
    outer loop
      vertex -22.35 23.05 -6.75
      vertex 36.1 35.8 -6.75
      vertex 22.35 23.05 -6.75
    endloop
  endfacet
  facet normal 0 0 -1
    outer loop
      vertex -22.35 23.05 -6.75
      vertex -36.1 35.8 -6.75
      vertex 36.1 35.8 -6.75
    endloop
  endfacet
  facet normal 0 0 -1
    outer loop
      vertex -36.1 35.8 -6.75
      vertex -22.35 23.05 -6.75
      vertex -36.1 -25.8 -6.75
    endloop
  endfacet
  facet normal 0 -1 0
    outer loop
      vertex -36.1 -25.8 11.45
      vertex -18.6 -25.8 1.45
      vertex 36.1 -25.8 11.45
    endloop
  endfacet
  facet normal 0 -1 0
    outer loop
      vertex -36.1 -25.8 11.45
      vertex -26.1 -25.8 0.75
      vertex -18.6 -25.8 1.45
    endloop
  endfacet
  facet normal 0 -1 0
    outer loop
      vertex -36.1 -25.8 -6.75
      vertex -26.1 -25.8 0.75
      vertex -36.1 -25.8 11.45
    endloop
  endfacet
  facet normal 0 -1 -0
    outer loop
      vertex -26.1 -25.8 -0.75
      vertex -36.1 -25.8 -6.75
      vertex 26.1 -25.8 -0.75
    endloop
  endfacet
  facet normal 0 -1 -0
    outer loop
      vertex -26.1 -25.8 0.75
      vertex -36.1 -25.8 -6.75
      vertex -26.1 -25.8 -0.75
    endloop
  endfacet
  facet normal 0 -1 0
    outer loop
      vertex 18.6 -25.8 1.45
      vertex 36.1 -25.8 11.45
      vertex -18.6 -25.8 1.45
    endloop
  endfacet
  facet normal 0 -1 0
    outer loop
      vertex 26.1 -25.8 0.75
      vertex 18.6 -25.8 1.45
      vertex 18.6 -25.8 0.75
    endloop
  endfacet
  facet normal 0 -1 0
    outer loop
      vertex 18.6 -25.8 1.45
      vertex 26.1 -25.8 0.75
      vertex 36.1 -25.8 11.45
    endloop
  endfacet
  facet normal 0 -1 0
    outer loop
      vertex 36.1 -25.8 -6.75
      vertex 26.1 -25.8 0.75
      vertex 26.1 -25.8 -0.75
    endloop
  endfacet
  facet normal 0 -1 0
    outer loop
      vertex 26.1 -25.8 0.75
      vertex 36.1 -25.8 -6.75
      vertex 36.1 -25.8 11.45
    endloop
  endfacet
  facet normal 0 -1 0
    outer loop
      vertex 36.1 -25.8 -6.75
      vertex 26.1 -25.8 -0.75
      vertex -36.1 -25.8 -6.75
    endloop
  endfacet
  facet normal 0 -1 -0
    outer loop
      vertex -18.6 -25.8 1.45
      vertex -26.1 -25.8 0.75
      vertex -18.6 -25.8 0.75
    endloop
  endfacet
  facet normal 1 -0 0
    outer loop
      vertex -26.1 -25.8 0.75
      vertex -26.1 25.8 -0.75
      vertex -26.1 25.8 0.75
    endloop
  endfacet
  facet normal 1 0 0
    outer loop
      vertex -26.1 25.8 -0.75
      vertex -26.1 -25.8 0.75
      vertex -26.1 -25.8 -0.75
    endloop
  endfacet
  facet normal 0 0 -1
    outer loop
      vertex -18.6 -25.8 0.75
      vertex -26.1 -25.8 0.75
      vertex -18.6 20.3 0.75
    endloop
  endfacet
  facet normal 0 0 -1
    outer loop
      vertex 18.6 20.3 0.75
      vertex 26.1 -25.8 0.75
      vertex 18.6 -25.8 0.75
    endloop
  endfacet
  facet normal 0 0 -1
    outer loop
      vertex 26.1 -25.8 0.75
      vertex 18.6 20.3 0.75
      vertex 26.1 25.8 0.75
    endloop
  endfacet
  facet normal 0 0 -1
    outer loop
      vertex -18.6 20.3 0.75
      vertex 26.1 25.8 0.75
      vertex 18.6 20.3 0.75
    endloop
  endfacet
  facet normal 0 0 -1
    outer loop
      vertex -18.6 20.3 0.75
      vertex -26.1 25.8 0.75
      vertex 26.1 25.8 0.75
    endloop
  endfacet
  facet normal 0 0 -1
    outer loop
      vertex -26.1 25.8 0.75
      vertex -18.6 20.3 0.75
      vertex -26.1 -25.8 0.75
    endloop
  endfacet
  facet normal -1 0 0
    outer loop
      vertex 26.1 -25.8 -0.75
      vertex 26.1 25.8 0.75
      vertex 26.1 25.8 -0.75
    endloop
  endfacet
  facet normal -1 -0 0
    outer loop
      vertex 26.1 25.8 0.75
      vertex 26.1 -25.8 -0.75
      vertex 26.1 -25.8 0.75
    endloop
  endfacet
  facet normal 0 -1 0
    outer loop
      vertex -26.1 25.8 -0.75
      vertex 26.1 25.8 0.75
      vertex -26.1 25.8 0.75
    endloop
  endfacet
  facet normal 0 -1 -0
    outer loop
      vertex 26.1 25.8 0.75
      vertex -26.1 25.8 -0.75
      vertex 26.1 25.8 -0.75
    endloop
  endfacet
  facet normal 0 0 1
    outer loop
      vertex 26.1 25.8 -0.75
      vertex 22.35 23.05 -0.75
      vertex 26.1 -25.8 -0.75
    endloop
  endfacet
  facet normal 0 0 1
    outer loop
      vertex 26.1 25.8 -0.75
      vertex -22.35 23.05 -0.75
      vertex 22.35 23.05 -0.75
    endloop
  endfacet
  facet normal 0 0 1
    outer loop
      vertex -22.35 23.05 -0.75
      vertex -26.1 25.8 -0.75
      vertex -22.35 -23.05 -0.75
    endloop
  endfacet
  facet normal -0 0 1
    outer loop
      vertex -26.1 25.8 -0.75
      vertex -22.35 23.05 -0.75
      vertex 26.1 25.8 -0.75
    endloop
  endfacet
  facet normal -0 0 1
    outer loop
      vertex 22.35 -23.05 -0.75
      vertex 26.1 -25.8 -0.75
      vertex 22.35 23.05 -0.75
    endloop
  endfacet
  facet normal -0 0 1
    outer loop
      vertex -22.35 -23.05 -0.75
      vertex 26.1 -25.8 -0.75
      vertex 22.35 -23.05 -0.75
    endloop
  endfacet
  facet normal 0 0 1
    outer loop
      vertex -22.35 -23.05 -0.75
      vertex -26.1 -25.8 -0.75
      vertex 26.1 -25.8 -0.75
    endloop
  endfacet
  facet normal 0 0 1
    outer loop
      vertex -26.1 -25.8 -0.75
      vertex -22.35 -23.05 -0.75
      vertex -26.1 25.8 -0.75
    endloop
  endfacet
  facet normal 1 -0 0
    outer loop
      vertex -18.6 -25.8 1.45
      vertex -18.6 20.3 0.75
      vertex -18.6 20.3 1.45
    endloop
  endfacet
  facet normal 1 0 0
    outer loop
      vertex -18.6 20.3 0.75
      vertex -18.6 -25.8 1.45
      vertex -18.6 -25.8 0.75
    endloop
  endfacet
  facet normal 0 0 -1
    outer loop
      vertex 18.6 -25.8 1.45
      vertex 14.88 -16.24 1.45
      vertex 18.6 20.3 1.45
    endloop
  endfacet
  facet normal 0 0 -1
    outer loop
      vertex 18.6 -25.8 1.45
      vertex -14.88 -16.24 1.45
      vertex 14.88 -16.24 1.45
    endloop
  endfacet
  facet normal 0 0 -1
    outer loop
      vertex -18.6 20.3 1.45
      vertex -14.88 -16.24 1.45
      vertex -18.6 -25.8 1.45
    endloop
  endfacet
  facet normal 0 0 -1
    outer loop
      vertex -18.6 -25.8 1.45
      vertex -14.88 -16.24 1.45
      vertex 18.6 -25.8 1.45
    endloop
  endfacet
  facet normal 0 0 -1
    outer loop
      vertex 14.88 16.24 1.45
      vertex 18.6 20.3 1.45
      vertex 14.88 -16.24 1.45
    endloop
  endfacet
  facet normal 0 0 -1
    outer loop
      vertex -14.88 16.24 1.45
      vertex 18.6 20.3 1.45
      vertex 14.88 16.24 1.45
    endloop
  endfacet
  facet normal 0 0 -1
    outer loop
      vertex -14.88 16.24 1.45
      vertex -18.6 20.3 1.45
      vertex 18.6 20.3 1.45
    endloop
  endfacet
  facet normal 0 0 -1
    outer loop
      vertex -14.88 -16.24 1.45
      vertex -18.6 20.3 1.45
      vertex -14.88 16.24 1.45
    endloop
  endfacet
  facet normal -1 0 0
    outer loop
      vertex 18.6 -25.8 0.75
      vertex 18.6 20.3 1.45
      vertex 18.6 20.3 0.75
    endloop
  endfacet
  facet normal -1 -0 0
    outer loop
      vertex 18.6 20.3 1.45
      vertex 18.6 -25.8 0.75
      vertex 18.6 -25.8 1.45
    endloop
  endfacet
  facet normal 0 -1 0
    outer loop
      vertex -18.6 20.3 0.75
      vertex 18.6 20.3 1.45
      vertex -18.6 20.3 1.45
    endloop
  endfacet
  facet normal 0 -1 -0
    outer loop
      vertex 18.6 20.3 1.45
      vertex -18.6 20.3 0.75
      vertex 18.6 20.3 0.75
    endloop
  endfacet
  facet normal 1 -0 0
    outer loop
      vertex -22.35 -23.05 -0.75
      vertex -22.35 23.05 -6.75
      vertex -22.35 23.05 -0.75
    endloop
  endfacet
  facet normal 1 0 0
    outer loop
      vertex -22.35 23.05 -6.75
      vertex -22.35 -23.05 -0.75
      vertex -22.35 -23.05 -6.75
    endloop
  endfacet
  facet normal -1 0 0
    outer loop
      vertex 22.35 -23.05 -6.75
      vertex 22.35 23.05 -0.75
      vertex 22.35 23.05 -6.75
    endloop
  endfacet
  facet normal -1 -0 0
    outer loop
      vertex 22.35 23.05 -0.75
      vertex 22.35 -23.05 -6.75
      vertex 22.35 -23.05 -0.75
    endloop
  endfacet
  facet normal 0 1 -0
    outer loop
      vertex 22.35 -23.05 -6.75
      vertex -22.35 -23.05 -0.75
      vertex 22.35 -23.05 -0.75
    endloop
  endfacet
  facet normal 0 1 0
    outer loop
      vertex -22.35 -23.05 -0.75
      vertex 22.35 -23.05 -6.75
      vertex -22.35 -23.05 -6.75
    endloop
  endfacet
  facet normal 0 -1 0
    outer loop
      vertex -22.35 23.05 -6.75
      vertex 22.35 23.05 -0.75
      vertex -22.35 23.05 -0.75
    endloop
  endfacet
  facet normal 0 -1 -0
    outer loop
      vertex 22.35 23.05 -0.75
      vertex -22.35 23.05 -6.75
      vertex 22.35 23.05 -6.75
    endloop
  endfacet
  facet normal 0 -1 0
    outer loop
      vertex -14.88 16.24 1.45
      vertex 14.88 16.24 9.45
      vertex -14.88 16.24 9.45
    endloop
  endfacet
  facet normal 0 -1 -0
    outer loop
      vertex 14.88 16.24 9.45
      vertex -14.88 16.24 1.45
      vertex 14.88 16.24 1.45
    endloop
  endfacet
  facet normal 0 1 -0
    outer loop
      vertex 14.88 -16.24 1.45
      vertex -14.88 -16.24 9.45
      vertex 14.88 -16.24 9.45
    endloop
  endfacet
  facet normal 0 1 0
    outer loop
      vertex -14.88 -16.24 9.45
      vertex 14.88 -16.24 1.45
      vertex -14.88 -16.24 1.45
    endloop
  endfacet
  facet normal 1 -0 0
    outer loop
      vertex -18.6 -20.3 11.45
      vertex -18.6 20.3 9.45
      vertex -18.6 20.3 11.45
    endloop
  endfacet
  facet normal 1 0 0
    outer loop
      vertex -18.6 20.3 9.45
      vertex -18.6 -20.3 11.45
      vertex -18.6 -20.3 9.45
    endloop
  endfacet
  facet normal -1 0 0
    outer loop
      vertex 18.6 -20.3 9.45
      vertex 18.6 20.3 11.45
      vertex 18.6 20.3 9.45
    endloop
  endfacet
  facet normal -1 -0 0
    outer loop
      vertex 18.6 20.3 11.45
      vertex 18.6 -20.3 9.45
      vertex 18.6 -20.3 11.45
    endloop
  endfacet
  facet normal 0 -1 0
    outer loop
      vertex -18.6 20.3 9.45
      vertex 18.6 20.3 11.45
      vertex -18.6 20.3 11.45
    endloop
  endfacet
  facet normal 0 -1 -0
    outer loop
      vertex 18.6 20.3 11.45
      vertex -18.6 20.3 9.45
      vertex 18.6 20.3 9.45
    endloop
  endfacet
  facet normal 0 0 1
    outer loop
      vertex 18.6 20.3 9.45
      vertex 14.88 16.24 9.45
      vertex 18.6 -20.3 9.45
    endloop
  endfacet
  facet normal 0 0 1
    outer loop
      vertex 18.6 20.3 9.45
      vertex -14.88 16.24 9.45
      vertex 14.88 16.24 9.45
    endloop
  endfacet
  facet normal 0 0 1
    outer loop
      vertex -14.88 16.24 9.45
      vertex -18.6 20.3 9.45
      vertex -14.88 -16.24 9.45
    endloop
  endfacet
  facet normal -0 0 1
    outer loop
      vertex -18.6 20.3 9.45
      vertex -14.88 16.24 9.45
      vertex 18.6 20.3 9.45
    endloop
  endfacet
  facet normal -0 0 1
    outer loop
      vertex 14.88 -16.24 9.45
      vertex 18.6 -20.3 9.45
      vertex 14.88 16.24 9.45
    endloop
  endfacet
  facet normal -0 0 1
    outer loop
      vertex -14.88 -16.24 9.45
      vertex 18.6 -20.3 9.45
      vertex 14.88 -16.24 9.45
    endloop
  endfacet
  facet normal 0 0 1
    outer loop
      vertex -14.88 -16.24 9.45
      vertex -18.6 -20.3 9.45
      vertex 18.6 -20.3 9.45
    endloop
  endfacet
  facet normal 0 0 1
    outer loop
      vertex -18.6 -20.3 9.45
      vertex -14.88 -16.24 9.45
      vertex -18.6 20.3 9.45
    endloop
  endfacet
  facet normal 0 1 -0
    outer loop
      vertex 18.6 -20.3 9.45
      vertex -18.6 -20.3 11.45
      vertex 18.6 -20.3 11.45
    endloop
  endfacet
  facet normal 0 1 0
    outer loop
      vertex -18.6 -20.3 11.45
      vertex 18.6 -20.3 9.45
      vertex -18.6 -20.3 9.45
    endloop
  endfacet
endsolid OpenSCAD_Model
